# xmcd
#
# Track frame offsets:
#	150
#	15484
#	27134
#	41380
#	59126
#	79767
#	95346
#	108590
#	123543
#	139149
#	153782
#	169819
#	190074
#	202917
#	217546
#	233069
#	246328
#	265349
#	279943
#	280622
#	281312
#	282081
#	283087
#	283891
#	284578
#	285279
#
# Disc length: 3810 seconds
#
# Revision: 1
# Processed by: cddbd v1.5.2PL0 Copyright (c) Steve Scherf et al.
# Submitted via: audiograbber 1.83.01
#
DISCID=7a0ee01a
DTITLE=Various Artist - CDX Volume 608 (November 10, 2014)
DYEAR=2014
DGENRE=Country
TTITLE0=Toby Keith - Drunk Americans [Radio Edit] 
TTITLE1=Rodney Atkins - Eat Sleep Love You Repeat 
TTITLE2=Luke Bryan - I See You 
TTITLE3=Swon Brothers - Pray For You [Edit]
TTITLE4=Justin Kane - American Strong
TTITLE5=Mitchell Tenpenny - Black Crow 
TTITLE6=Vince Hatfield - How Long Will I Love You
TTITLE7=Haley and Michaels - Just Another Love Song 
TTITLE8=Mikel Knight - Last Night In Texas
TTITLE9=Nashville Crush - Make It Bounce
TTITLE10=Donovan Lee - Missing You
TTITLE11=Madeline Smith - Stay
TTITLE12=Sweetwater Rain - Tailspin
TTITLE13=Paul Lovelace - Christmas Every Day With You 
TTITLE14=Kacey Jones - Christmas In Rehab
TTITLE15=Tyler Braham - Coal In Your Stocking This Year
TTITLE16=Kacey Jones - I'm Down To My Christmas Underwear
TTITLE17=Sammy Hakim - This Christmas Love Me
TTITLE18=Skylar Elise - Radio Liner - Home Town Country
TTITLE19=Skylar Elise - Radio Liner - Kickin' Country
TTITLE20=Skylar Elise - Radio Liner - More Of The Country You Love
TTITLE21=Skylar Elise - Radio Liner - My New Single
TTITLE22=Skylar Elise - Radio Liner - Super Country
TTITLE23=Skylar Elise - Radio Liner - The Best In Country Music
TTITLE24=Skylar Elise - Radio Liner - Today's Best Country
TTITLE25=Skylar Elise - Radio Liner - Today's Hot Country
EXTD=
EXTT0=
EXTT1=
EXTT2=
EXTT3=
EXTT4=
EXTT5=
EXTT6=
EXTT7=
EXTT8=
EXTT9=
EXTT10=
EXTT11=
EXTT12=
EXTT13=
EXTT14=
EXTT15=
EXTT16=
EXTT17=
EXTT18=
EXTT19=
EXTT20=
EXTT21=
EXTT22=
EXTT23=
EXTT24=
EXTT25=
PLAYORDER=
